<?xml version="1.0" encoding="UTF-8"?> <svg xmlns="http://www.w3.org/2000/svg" width="160" height="119" fill="none"><g clip-path="url(#clip0)"><path d="M73.333 118.4c-1.377-1.296-2.888-2.547-2.666-4.736.089-.849-.578-.626-1.023-.76-2.355-.625-3.333-1.831-3.377-4.289-.045-1.027 0-2.1 0-3.127 0-1.609.355-3.262-1.29-4.424-.577-.402-.666-1.34-.621-2.1.31-2.725-.845-5.674.977-8.22.445-.626-.177-1.118-.489-1.609-4.888-7.73-11.066-13.761-19.644-17.693-14.222-6.523-21.867-18.095-21.556-33.911.267-15.504 8.134-26.45 22.045-33.018 1.511-.715 2.8-.76 4.4.134 3.6 2.01 7.378 3.753 11.067 5.63 2.8 1.429 2.977 2.68.71 4.78-3.466 3.261-6.933 6.478-10.355 9.785-.4.402-.978.67-1.111 1.474 5.733-.67 11.467-1.296 17.156-2.01 1.2-.134 2.4-.358 3.155.893.8 1.296 0 2.234-.755 3.217-2.4 3.083-4.8 6.21-7.334 9.472 2.356.402 4.356.715 6.4 1.072 3.334.626 3.867 2.01 1.734 4.558-2.445 2.948-4.934 5.852-7.645 9.114 3.422.134 6.489.313 9.556.402 3.866.134 4.578 1.296 2.666 4.602-1.644 2.815-3.244 5.674-4.933 8.445-.578.938-.667 1.43.533 1.92 3.734 1.61 7.378 3.352 11.111 5.05.178.044.445.178.49.134.222-.224.088-.447-.134-.626-.578-1.43-1.111-2.904-1.689-4.334-.889-2.323-.489-3.217 1.911-3.932 4.534-1.385 9.067-2.725 13.556-4.065.355-.09.755-.134 1.022-.67-2.667-2.145-5.333-4.334-8.044-6.524-.89-.715-1.823-1.43-1.467-2.77.356-1.25 1.422-1.519 2.578-1.787 3.955-.849 7.91-1.832 12.355-2.86a358.379 358.379 0 01-4.31-4.557c-2.356-2.457-1.956-3.842 1.288-4.78 3.156-.894 6.311-1.743 9.867-2.77-4.267-2.503-8.178-4.826-12.134-7.15-1.6-.938-3.2-1.876-4.8-2.77-1.066-.58-1.822-1.34-1.51-2.636.266-1.34 1.377-1.653 2.533-1.742 5.866-.625 11.777-1.34 17.644-1.877 1.867-.178 2.533-.446 1.422-2.412-1.422-2.502-2.578-5.183-3.866-7.73-.534-1.072-.889-2.1.044-3.083.933-.982 1.956-.625 3.067-.223 13.955 5.183 23.555 18.587 23.733 33.241.222 15.772-8.8 29.355-23.067 35.074-8.089 3.216-13.422 9.472-18.044 16.576-.489.76-.133 1.027.4 1.34 1.467.938 1.867 2.368 1.822 4.021-.044 1.653 0 3.262-.044 4.915 0 .447-.045 1.027-.267 1.296-2.356 2.323-1.378 5.227-1.511 7.908-.133 2.815-.844 3.842-3.6 4.557-.489.134-1.067 0-.978.804.267 2.279-1.244 3.485-2.8 4.692-4.711.089-9.422.089-14.178.089zM64.09 29.041c-6.578.76-12.756 1.52-18.889 2.19-1.244.134-2.622.402-3.289-1.117-.622-1.43.311-2.368 1.245-3.262 4.31-4.066 8.577-8.176 12.977-12.197 1.378-1.251 1.111-1.698-.4-2.368-2.088-.939-4.177-1.921-6.177-3.083-1.378-.804-2.534-.76-3.912 0-11.51 6.21-17.866 15.95-17.866 28.997-.045 13.627 6.844 23.322 18.844 29.443 1.511.76 3.156 1.251 4.667 2.056 7.511 4.11 12.933 10.32 17.333 17.514.756 1.25 1.556 1.698 2.978 1.653 4.311-.09 8.622-.268 12.889.045 3.555.268 5.689-.805 7.644-3.977 4.49-7.327 10.489-13.314 18.623-16.576 20.133-8.131 26.977-32.08 14.133-49.594-2.445-3.306-5.378-6.12-9.245-7.908a19.652 19.652 0 001.734 4.066c3.289 5.719 1.422 5.942-3.734 6.478-4.444.447-8.844.983-13.866 1.52 5.422 3.172 10.311 6.076 15.244 8.935 1.067.626 2.178 1.207 2.089 2.636-.133 1.52-1.422 1.922-2.667 2.279-3.688.983-7.377 2.055-11.066 3.083-.134.223-.311.447-.445.625 1.645 1.475 3.378 2.86 4.934 4.424 1.911 1.965 1.377 3.663-1.289 4.289-3.867.938-7.734 1.787-11.956 2.77 2.8 2.279 5.29 4.378 7.822 6.344.978.76 1.867 1.52 1.556 2.95-.311 1.34-1.467 1.518-2.533 1.876-4.8 1.474-9.6 2.949-14.445 4.334-1.289.357-1.866.76-1.11 2.278 1.066 2.145 1.866 4.379 2.755 6.568.444 1.072.666 2.19-.311 3.083-.89.849-1.867.58-2.89.134-6.31-2.949-12.621-5.853-18.933-8.846-2.31-1.073-2.489-1.877-1.2-4.2a756.225 756.225 0 015.245-9.16c-3.956-.178-7.645-.402-11.334-.536-1.11-.044-2.088-.134-2.577-1.295-.49-1.162.133-1.966.8-2.815 2.222-2.592 4.4-5.228 6.578-7.82.444-.535 1.377-1.027 1.155-1.786-.222-.715-1.244-.581-1.956-.715-1.333-.224-2.622-.358-3.955-.626-2.889-.58-3.467-2.01-1.689-4.333a523.756 523.756 0 006.489-8.355zm16.356 70.46h8.177c4.845 0 4.756 0 4.711-4.781 0-1.43-.489-1.742-1.822-1.698-6.444.09-12.844.045-19.289.045-4.889 0-4.844 0-4.666 4.87.044 1.296.533 1.653 1.733 1.608 3.778-.089 7.467-.044 11.156-.044zm.088 10.008H87.2c4.444 0 4.356 0 4.356-4.513 0-1.608-.578-1.966-2.045-1.966-5.111.09-10.178.045-15.289.045-4.71 0-4.622 0-4.578 4.736 0 1.43.49 1.742 1.823 1.698 3.022-.09 6.044 0 9.066 0zm.045 5.451h5.066c.623 0 1.29-.179 1.29-.894.044-.804-.623-1.117-1.334-1.117H75.467c-.756 0-1.378.313-1.29 1.162.045.759.712.849 1.334.893 1.689 0 3.378 0 5.067-.044zM148.889 0c.622 1.162.578 2.323.044 3.574-1.155 2.815-2.133 5.675-3.244 8.534-.756 1.921-1.689 2.234-3.378 1.117-1.644-1.072-3.244-2.279-5.155-3.574-.267 1.563-.489 2.904-.712 4.244-.177 1.207-.622 2.324-2.044 2.1-1.378-.223-1.6-1.295-1.378-2.591.4-2.19.711-4.379 1.156-6.568.4-2.01 1.422-2.413 3.111-1.296 1.467.983 2.978 1.966 4.355 3.083 1.023.76 1.467.76 1.956-.58.933-2.726 2.044-5.362 3.067-8.043h2.222zM11.556 0c1.11 2.725 2.222 5.45 3.244 8.221.4 1.028.711 1.251 1.644.491 1.467-1.161 2.978-2.189 4.534-3.216 1.733-1.117 2.8-.715 3.2 1.25.444 2.28.755 4.558 1.11 6.836.179 1.162-.088 2.19-1.377 2.368-1.333.224-1.822-.76-2-1.876-.267-1.385-.444-2.77-.711-4.468a462.789 462.789 0 00-5.022 3.44c-1.911 1.251-2.711 1.073-3.511-.983-1.2-3.038-2.223-6.12-3.511-9.114-.49-1.162 0-1.966.177-2.949h2.223zM160 50.487c-1.422 1.386-2.756 1.386-4.089-.223-.622-.804-1.511-1.385-2.355-2.19-1.289 2.235-2.445 4.38-3.689 6.48-1.245 2.144-2 2.278-3.689.58-1.867-1.876-3.689-3.842-5.556-5.763-.844-.894-1.333-1.877-.222-2.86 1.022-.894 1.911-.357 2.667.492 1.155 1.25 2.4 2.412 3.511 3.708.8.983 1.2.715 1.689-.224.977-1.831 2.044-3.619 3.022-5.406.889-1.608 1.955-1.966 3.333-.625 1.822 1.698 3.556 3.485 5.334 5.227.044.224.044.492.044.804zM0 48.7c1.956-.938 3.156-2.77 4.756-4.11 1.688-1.475 2.533-1.385 3.644.536 1.244 2.1 2.4 4.245 3.511 6.166 1.6-1.475 3.111-2.86 4.578-4.334.889-.894 1.778-1.474 2.844-.447 1.067 1.072.445 2.01-.4 2.86-1.91 1.965-3.777 3.976-5.689 5.942-1.244 1.296-2.31 1.117-3.2-.402-1.11-1.921-2.266-3.843-3.288-5.809-.578-1.116-1.023-1.027-1.734-.223-.489.536-1.11.983-1.6 1.52-1.066 1.25-2.222 1.295-3.51.401C0 50.175 0 49.46 0 48.7z" fill="#000"></path><path d="M37.867 81.316c.977 1.966 1.822 3.485 2.577 5.094.712 1.563.134 2.68-1.6 2.77-2.489.134-5.022.09-7.555.09-1.111 0-1.867-.582-1.867-1.743 0-1.162.845-1.653 1.956-1.698 1.51-.045 3.066 0 4.889 0-.934-1.921-1.778-3.575-2.578-5.228-.978-2.1-.311-3.172 1.955-2.993 2.934.268 5.867.625 8.845.938 1.2.134 2.044.67 1.822 1.966-.178 1.296-1.155 1.52-2.311 1.385a832.417 832.417 0 01-6.133-.58zM121.556 85.829h4.8c1.2 0 2.088.491 2.044 1.832-.044 1.295-.978 1.698-2.178 1.653-2.222-.045-4.444 0-6.666-.045-2.4-.09-2.978-1.117-1.912-3.35.712-1.475 1.467-2.905 2.267-4.558-2.178.223-4.133.357-6.044.625-1.2.18-2.134-.044-2.356-1.34-.222-1.296.578-1.877 1.822-2.01 2.845-.313 5.734-.626 8.578-.939.889-.09 1.822-.313 2.4.626.667.983.089 1.832-.355 2.68a249.236 249.236 0 01-2.4 4.826z" fill="#000"></path><path d="M64.089 29.041c-2.311 2.994-4.4 5.675-6.445 8.4-1.777 2.323-1.2 3.753 1.69 4.334 1.288.268 2.621.447 3.955.626.711.089 1.733 0 1.955.714.223.715-.666 1.207-1.155 1.788-2.178 2.636-4.4 5.227-6.578 7.819-.711.848-1.289 1.653-.8 2.814.489 1.162 1.511 1.251 2.578 1.296 3.689.134 7.333.313 11.333.536-1.822 3.172-3.555 6.166-5.244 9.16-1.29 2.323-1.111 3.082 1.2 4.2l18.933 8.846c.978.447 2 .715 2.889-.134.978-.939.755-2.01.311-3.083-.889-2.19-1.689-4.468-2.755-6.568-.756-1.474-.178-1.877 1.11-2.279 4.845-1.43 9.645-2.904 14.445-4.334 1.067-.312 2.222-.491 2.533-1.876.312-1.385-.577-2.145-1.555-2.949-2.534-2.01-5.022-4.066-7.822-6.344 4.222-.983 8.089-1.832 11.955-2.77 2.667-.626 3.2-2.324 1.289-4.29-1.555-1.563-3.289-2.949-4.933-4.423.133-.223.311-.447.444-.625l11.067-3.083c1.289-.358 2.533-.715 2.667-2.279.133-1.385-1.023-2.01-2.089-2.636-4.889-2.86-9.823-5.764-15.245-8.936 5.022-.58 9.467-1.072 13.867-1.519 5.155-.491 6.978-.76 3.733-6.478-.711-1.252-1.289-2.636-1.733-4.066 3.822 1.787 6.8 4.602 9.244 7.908 12.889 17.514 6 41.418-14.133 49.594-8.133 3.306-14.133 9.249-18.622 16.576-1.956 3.217-4.09 4.245-7.645 3.976-4.266-.312-8.578-.134-12.889-.044-1.422.044-2.222-.402-2.977-1.653-4.356-7.239-9.823-13.449-17.334-17.515-1.466-.804-3.155-1.295-4.666-2.055-12-6.121-18.89-15.861-18.845-29.444.045-13.046 6.356-22.741 17.911-28.952 1.378-.715 2.534-.804 3.911 0 2 1.162 4.045 2.19 6.178 3.083 1.511.67 1.778 1.117.4 2.368-4.4 3.977-8.666 8.132-12.978 12.198-.977.893-1.91 1.787-1.244 3.261.667 1.52 2.044 1.251 3.289 1.117 6.044-.76 12.222-1.474 18.8-2.279zm63.378 8.088c-.045-1.117-.178-2.234-.178-3.351 0-1.52-.489-2.815-2.133-2.815-1.778.044-2.178 1.385-2.045 3.038.222 2.993.089 5.942-.533 8.891-1.245 5.674-3.689 10.634-8.267 14.342-1.067.894-1.378 1.966-.489 3.128.889 1.117 2.045 1.072 3.111.178 1.023-.849 2.045-1.742 2.934-2.725 5.155-5.898 7.289-12.957 7.6-20.686zm-15.911 26.539c-.134-1.162-.712-1.966-1.956-2.01-1.333-.045-2.089.759-2.044 2.1.044 1.25.8 1.92 2 1.92 1.2-.044 1.822-.804 2-2.01z" fill="#018D50"></path><path d="M80.444 99.5c-3.689 0-7.377-.044-11.066 0-1.2 0-1.69-.312-1.734-1.608-.177-4.87-.222-4.87 4.667-4.87 6.444 0 12.844 0 19.289-.044 1.289 0 1.778.312 1.822 1.697.045 4.781.133 4.781-4.71 4.781-2.8.045-5.556.045-8.268.045zM80.533 109.509c-3.022 0-6.044-.045-9.066.044-1.334.045-1.778-.312-1.823-1.697-.088-4.736-.133-4.736 4.578-4.736 5.111 0 10.178.044 15.29-.045 1.466 0 2.088.313 2.044 1.966 0 4.512.044 4.512-4.356 4.512-2.222-.044-4.444-.044-6.667-.044zM80.578 115.004H75.51c-.622 0-1.244-.134-1.333-.893-.09-.849.533-1.162 1.289-1.162H85.6c.711 0 1.378.313 1.333 1.117-.044.715-.666.894-1.289.894-1.689.044-3.377 0-5.066.044z" fill="#FFA81B"></path><path d="M127.467 37.128c-.311 7.73-2.445 14.79-7.645 20.687-.889.983-1.911 1.876-2.933 2.725-1.067.894-2.222.939-3.111-.178-.889-1.117-.622-2.234.489-3.128 4.577-3.708 7.066-8.668 8.266-14.342.623-2.904.756-5.898.534-8.891-.134-1.609.266-2.994 2.044-3.038 1.645-.045 2.133 1.295 2.133 2.815.045 1.117.178 2.233.223 3.35zM111.556 63.668c-.178 1.206-.8 1.966-2 1.966s-2-.67-2-1.921c-.045-1.34.711-2.1 2.044-2.1 1.2.089 1.778.893 1.956 2.055z" fill="#F2F7F4"></path></g><defs><clipPath id="clip0"><path fill="#fff" d="M0 0h160v118.4H0z"></path></clipPath></defs></svg> 